<svg width="350" height="100" viewBox="0 0 350 100" fill="none" xmlns="http://www.w3.org/2000/svg">
<path d="M66.1765 59.375H45.7165L41.4815 69H35.8165L53.2515 30.5H58.6965L76.1865 69H70.4115L66.1765 59.375ZM64.2515 54.975L55.9465 36.11L47.6415 54.975H64.2515ZM107.456 67.295C106.686 67.955 105.733 68.4683 104.596 68.835C103.459 69.165 102.286 69.33 101.076 69.33C98.1428 69.33 95.8695 68.5417 94.2561 66.965C92.6428 65.3883 91.8361 63.1333 91.8361 60.2V44.195H86.8861V39.85H91.8361V33.47H97.1161V39.85H105.476V44.195H97.1161V59.98C97.1161 61.5567 97.5011 62.7667 98.2711 63.61C99.0778 64.4533 100.214 64.875 101.681 64.875C103.294 64.875 104.669 64.4167 105.806 63.5L107.456 67.295ZM149.393 54.59C149.393 54.9933 149.356 55.525 149.283 56.185H125.633C125.963 58.7517 127.081 60.8233 128.988 62.4C130.931 63.94 133.333 64.71 136.193 64.71C139.676 64.71 142.481 63.5367 144.608 61.19L147.523 64.6C146.203 66.14 144.553 67.3133 142.573 68.12C140.629 68.9267 138.448 69.33 136.028 69.33C132.948 69.33 130.216 68.7067 127.833 67.46C125.449 66.1767 123.598 64.3983 122.278 62.125C120.994 59.8517 120.353 57.285 120.353 54.425C120.353 51.6017 120.976 49.0533 122.223 46.78C123.506 44.5067 125.248 42.7467 127.448 41.5C129.684 40.2167 132.196 39.575 134.983 39.575C137.769 39.575 140.244 40.2167 142.408 41.5C144.608 42.7467 146.313 44.5067 147.523 46.78C148.769 49.0533 149.393 51.6567 149.393 54.59ZM134.983 44.03C132.453 44.03 130.326 44.8 128.603 46.34C126.916 47.88 125.926 49.8967 125.633 52.39H144.333C144.039 49.9333 143.031 47.935 141.308 46.395C139.621 44.8183 137.513 44.03 134.983 44.03ZM175.26 69.33C172.876 69.33 170.585 69.0183 168.385 68.395C166.185 67.735 164.461 66.91 163.215 65.92L165.415 61.74C166.698 62.6567 168.256 63.39 170.09 63.94C171.923 64.49 173.775 64.765 175.645 64.765C180.265 64.765 182.575 63.445 182.575 60.805C182.575 59.925 182.263 59.2283 181.64 58.715C181.016 58.2017 180.228 57.835 179.275 57.615C178.358 57.3583 177.038 57.0833 175.315 56.79C172.968 56.4233 171.043 56.0017 169.54 55.525C168.073 55.0483 166.808 54.2417 165.745 53.105C164.681 51.9683 164.15 50.3733 164.15 48.32C164.15 45.68 165.25 43.5717 167.45 41.995C169.65 40.3817 172.601 39.575 176.305 39.575C178.248 39.575 180.191 39.8133 182.135 40.29C184.078 40.7667 185.673 41.4083 186.92 42.215L184.665 46.395C182.281 44.855 179.476 44.085 176.25 44.085C174.013 44.085 172.308 44.4517 171.135 45.185C169.961 45.9183 169.375 46.89 169.375 48.1C169.375 49.0533 169.705 49.805 170.365 50.355C171.025 50.905 171.831 51.3083 172.785 51.565C173.775 51.8217 175.15 52.115 176.91 52.445C179.256 52.8483 181.145 53.2883 182.575 53.765C184.041 54.205 185.288 54.975 186.315 56.075C187.341 57.175 187.855 58.715 187.855 60.695C187.855 63.335 186.718 65.4433 184.445 67.02C182.208 68.56 179.146 69.33 175.26 69.33ZM221.018 67.295C220.248 67.955 219.295 68.4683 218.158 68.835C217.022 69.165 215.848 69.33 214.638 69.33C211.705 69.33 209.432 68.5417 207.818 66.965C206.205 65.3883 205.398 63.1333 205.398 60.2V44.195H200.448V39.85H205.398V33.47H210.678V39.85H219.038V44.195H210.678V59.98C210.678 61.5567 211.063 62.7667 211.833 63.61C212.64 64.4533 213.777 64.875 215.243 64.875C216.857 64.875 218.232 64.4167 219.368 63.5L221.018 67.295ZM249.095 69.33C246.198 69.33 243.595 68.6883 241.285 67.405C238.975 66.1217 237.16 64.3617 235.84 62.125C234.557 59.8517 233.915 57.285 233.915 54.425C233.915 51.565 234.557 49.0167 235.84 46.78C237.16 44.5067 238.975 42.7467 241.285 41.5C243.595 40.2167 246.198 39.575 249.095 39.575C251.992 39.575 254.577 40.2167 256.85 41.5C259.16 42.7467 260.957 44.5067 262.24 46.78C263.56 49.0167 264.22 51.565 264.22 54.425C264.22 57.285 263.56 59.8517 262.24 62.125C260.957 64.3617 259.16 66.1217 256.85 67.405C254.577 68.6883 251.992 69.33 249.095 69.33ZM249.095 64.71C250.965 64.71 252.633 64.2883 254.1 63.445C255.603 62.565 256.777 61.355 257.62 59.815C258.463 58.2383 258.885 56.4417 258.885 54.425C258.885 52.4083 258.463 50.63 257.62 49.09C256.777 47.5133 255.603 46.3033 254.1 45.46C252.633 44.6167 250.965 44.195 249.095 44.195C247.225 44.195 245.538 44.6167 244.035 45.46C242.568 46.3033 241.395 47.5133 240.515 49.09C239.672 50.63 239.25 52.4083 239.25 54.425C239.25 56.4417 239.672 58.2383 240.515 59.815C241.395 61.355 242.568 62.565 244.035 63.445C245.538 64.2883 247.225 64.71 249.095 64.71ZM297.262 39.575C300.965 39.575 303.899 40.6567 306.062 42.82C308.262 44.9467 309.362 48.0817 309.362 52.225V69H304.082V52.83C304.082 50.0067 303.404 47.88 302.047 46.45C300.69 45.02 298.747 44.305 296.217 44.305C293.357 44.305 291.102 45.1483 289.452 46.835C287.802 48.485 286.977 50.8683 286.977 53.985V69H281.697V39.85H286.757V44.25C287.82 42.7467 289.25 41.5917 291.047 40.785C292.88 39.9783 294.952 39.575 297.262 39.575Z" fill="#27AE60"/>
<path d="M252.033 32.12C251.659 32.12 251.339 31.9933 251.073 31.74C250.806 31.4733 250.673 31.14 250.673 30.74C250.673 30.3533 250.806 30.0333 251.073 29.78C251.339 29.5133 251.659 29.38 252.033 29.38C252.406 29.38 252.719 29.5067 252.973 29.76C253.226 30.0133 253.353 30.34 253.353 30.74C253.353 31.14 253.219 31.4733 252.953 31.74C252.699 31.9933 252.393 32.12 252.033 32.12ZM264.19 32.12C263.11 32.12 262.143 31.8867 261.29 31.42C260.45 30.9533 259.79 30.3133 259.31 29.5C258.83 28.6733 258.59 27.74 258.59 26.7C258.59 25.66 258.83 24.7333 259.31 23.92C259.79 23.0933 260.45 22.4533 261.29 22C262.143 21.5333 263.11 21.3 264.19 21.3C265.15 21.3 266.003 21.4933 266.75 21.88C267.51 22.2667 268.096 22.8267 268.51 23.56L267.05 24.5C266.716 23.9933 266.303 23.6133 265.81 23.36C265.316 23.1067 264.77 22.98 264.17 22.98C263.476 22.98 262.85 23.1333 262.29 23.44C261.743 23.7467 261.31 24.1867 260.99 24.76C260.683 25.32 260.53 25.9667 260.53 26.7C260.53 27.4467 260.683 28.1067 260.99 28.68C261.31 29.24 261.743 29.6733 262.29 29.98C262.85 30.2867 263.476 30.44 264.17 30.44C264.77 30.44 265.316 30.3133 265.81 30.06C266.303 29.8067 266.716 29.4267 267.05 28.92L268.51 29.84C268.096 30.5733 267.51 31.14 266.75 31.54C266.003 31.9267 265.15 32.12 264.19 32.12ZM279.079 32.12C278.026 32.12 277.079 31.8867 276.239 31.42C275.399 30.9533 274.739 30.3133 274.259 29.5C273.792 28.6733 273.559 27.74 273.559 26.7C273.559 25.66 273.792 24.7333 274.259 23.92C274.739 23.0933 275.399 22.4533 276.239 22C277.079 21.5333 278.026 21.3 279.079 21.3C280.132 21.3 281.072 21.5333 281.899 22C282.739 22.4533 283.392 23.0933 283.859 23.92C284.339 24.7333 284.579 25.66 284.579 26.7C284.579 27.74 284.339 28.6733 283.859 29.5C283.392 30.3133 282.739 30.9533 281.899 31.42C281.072 31.8867 280.132 32.12 279.079 32.12ZM279.079 30.44C279.759 30.44 280.366 30.2867 280.899 29.98C281.446 29.66 281.872 29.22 282.179 28.66C282.486 28.0867 282.639 27.4333 282.639 26.7C282.639 25.9667 282.486 25.32 282.179 24.76C281.872 24.1867 281.446 23.7467 280.899 23.44C280.366 23.1333 279.759 22.98 279.079 22.98C278.399 22.98 277.786 23.1333 277.239 23.44C276.706 23.7467 276.279 24.1867 275.959 24.76C275.652 25.32 275.499 25.9667 275.499 26.7C275.499 27.4333 275.652 28.0867 275.959 28.66C276.279 29.22 276.706 29.66 277.239 29.98C277.786 30.2867 278.399 30.44 279.079 30.44ZM304.194 21.3C305.528 21.3 306.581 21.6867 307.354 22.46C308.141 23.2333 308.534 24.38 308.534 25.9V32H306.614V26.12C306.614 25.0933 306.374 24.32 305.894 23.8C305.428 23.28 304.754 23.02 303.874 23.02C302.901 23.02 302.128 23.3267 301.554 23.94C300.981 24.54 300.694 25.4067 300.694 26.54V32H298.774V26.12C298.774 25.0933 298.534 24.32 298.054 23.8C297.588 23.28 296.914 23.02 296.034 23.02C295.061 23.02 294.288 23.3267 293.714 23.94C293.141 24.54 292.854 25.4067 292.854 26.54V32H290.934V21.4H292.774V22.98C293.161 22.4333 293.668 22.02 294.294 21.74C294.921 21.4467 295.634 21.3 296.434 21.3C297.261 21.3 297.994 21.4667 298.634 21.8C299.274 22.1333 299.768 22.62 300.114 23.26C300.514 22.6467 301.068 22.1667 301.774 21.82C302.494 21.4733 303.301 21.3 304.194 21.3Z" fill="#27AE60"/>
</svg>
