<svg width="350" height="100" viewBox="0 0 350 100" fill="none" xmlns="http://www.w3.org/2000/svg">
<path d="M7 83.0526C7 43.8113 38.8114 12 78.0526 12H339.316C341.496 12 343.264 13.7673 343.264 15.9474V15.9474C343.264 55.1887 311.452 87 272.211 87H10.9474C8.76729 87 7 85.2327 7 83.0526V83.0526Z" fill="url(#paint0_linear)"/>
<path d="M65.6338 39.562C66.6911 39.8567 67.5231 40.394 68.1298 41.174C68.7364 41.9367 69.0398 42.9073 69.0398 44.086C69.0398 45.6633 68.4418 46.8767 67.2458 47.726C66.0671 48.5753 64.3424 49 62.0718 49H53.3878V30.8H61.5518C63.6318 30.8 65.2351 31.216 66.3618 32.048C67.5058 32.88 68.0778 34.0327 68.0778 35.506C68.0778 36.4593 67.8524 37.2827 67.4018 37.976C66.9684 38.6693 66.3791 39.198 65.6338 39.562ZM55.9878 32.906V38.73H61.3178C62.6524 38.73 63.6751 38.4873 64.3858 38.002C65.1138 37.4993 65.4778 36.7713 65.4778 35.818C65.4778 34.8647 65.1138 34.1453 64.3858 33.66C63.6751 33.1573 62.6524 32.906 61.3178 32.906H55.9878ZM61.9678 46.894C63.4411 46.894 64.5504 46.6513 65.2958 46.166C66.0411 45.6807 66.4138 44.918 66.4138 43.878C66.4138 41.85 64.9318 40.836 61.9678 40.836H55.9878V46.894H61.9678ZM81.2815 49.208C79.4442 49.208 77.7888 48.8093 76.3155 48.012C74.8422 47.1973 73.6808 46.0793 72.8315 44.658C71.9995 43.2367 71.5835 41.6507 71.5835 39.9C71.5835 38.1493 71.9995 36.5633 72.8315 35.142C73.6808 33.7207 74.8422 32.6113 76.3155 31.814C77.7888 30.9993 79.4442 30.592 81.2815 30.592C83.1015 30.592 84.7482 30.9993 86.2215 31.814C87.6948 32.6113 88.8475 33.7207 89.6795 35.142C90.5115 36.546 90.9275 38.132 90.9275 39.9C90.9275 41.668 90.5115 43.2627 89.6795 44.684C88.8475 46.088 87.6948 47.1973 86.2215 48.012C84.7482 48.8093 83.1015 49.208 81.2815 49.208ZM81.2815 46.894C82.6162 46.894 83.8122 46.5907 84.8695 45.984C85.9442 45.3773 86.7848 44.5453 87.3915 43.488C88.0155 42.4133 88.3275 41.2173 88.3275 39.9C88.3275 38.5827 88.0155 37.3953 87.3915 36.338C86.7848 35.2633 85.9442 34.4227 84.8695 33.816C83.8122 33.2093 82.6162 32.906 81.2815 32.906C79.9468 32.906 78.7335 33.2093 77.6415 33.816C76.5668 34.4227 75.7175 35.2633 75.0935 36.338C74.4868 37.3953 74.1835 38.5827 74.1835 39.9C74.1835 41.2173 74.4868 42.4133 75.0935 43.488C75.7175 44.5453 76.5668 45.3773 77.6415 45.984C78.7335 46.5907 79.9468 46.894 81.2815 46.894ZM110.553 30.8V49H108.421L97.5014 35.428V49H94.9014V30.8H97.0334L107.953 44.372V30.8H110.553ZM123.541 49.208C121.114 49.208 119.225 48.5147 117.873 47.128C116.521 45.7413 115.845 43.748 115.845 41.148V30.8H118.445V41.044C118.445 44.944 120.152 46.894 123.567 46.894C125.231 46.894 126.505 46.4173 127.389 45.464C128.273 44.4933 128.715 43.02 128.715 41.044V30.8H131.237V41.148C131.237 43.7653 130.561 45.7673 129.209 47.154C127.857 48.5233 125.968 49.208 123.541 49.208ZM141.871 49.208C140.502 49.208 139.176 49 137.893 48.584C136.628 48.1507 135.631 47.596 134.903 46.92L135.865 44.892C136.559 45.516 137.443 46.0273 138.517 46.426C139.609 46.8073 140.727 46.998 141.871 46.998C143.379 46.998 144.506 46.7467 145.251 46.244C145.997 45.724 146.369 45.0393 146.369 44.19C146.369 43.566 146.161 43.0633 145.745 42.682C145.347 42.2833 144.844 41.98 144.237 41.772C143.648 41.564 142.807 41.33 141.715 41.07C140.346 40.7407 139.237 40.4113 138.387 40.082C137.555 39.7527 136.836 39.25 136.229 38.574C135.64 37.8807 135.345 36.9533 135.345 35.792C135.345 34.8213 135.597 33.946 136.099 33.166C136.619 32.386 137.399 31.762 138.439 31.294C139.479 30.826 140.771 30.592 142.313 30.592C143.388 30.592 144.445 30.7307 145.485 31.008C146.525 31.2853 147.418 31.684 148.163 32.204L147.305 34.284C146.543 33.7987 145.728 33.4347 144.861 33.192C143.995 32.932 143.145 32.802 142.313 32.802C140.84 32.802 139.731 33.0707 138.985 33.608C138.257 34.1453 137.893 34.8387 137.893 35.688C137.893 36.312 138.101 36.8233 138.517 37.222C138.933 37.6033 139.445 37.9067 140.051 38.132C140.675 38.34 141.516 38.5653 142.573 38.808C143.943 39.1373 145.043 39.4667 145.875 39.796C146.707 40.1253 147.418 40.628 148.007 41.304C148.614 41.98 148.917 42.89 148.917 44.034C148.917 44.9873 148.657 45.8627 148.137 46.66C147.617 47.44 146.829 48.064 145.771 48.532C144.714 48.9827 143.414 49.208 141.871 49.208ZM151.9 40.784H158.894V42.942H151.9V40.784ZM171.494 49.208C169.657 49.208 168.002 48.8093 166.528 48.012C165.055 47.1973 163.894 46.0793 163.044 44.658C162.212 43.2367 161.796 41.6507 161.796 39.9C161.796 38.1493 162.212 36.5633 163.044 35.142C163.894 33.7207 165.055 32.6113 166.528 31.814C168.002 30.9993 169.657 30.592 171.494 30.592C173.314 30.592 174.961 30.9993 176.434 31.814C177.908 32.6113 179.06 33.7207 179.892 35.142C180.724 36.546 181.14 38.132 181.14 39.9C181.14 41.668 180.724 43.2627 179.892 44.684C179.06 46.088 177.908 47.1973 176.434 48.012C174.961 48.8093 173.314 49.208 171.494 49.208ZM171.494 46.894C172.829 46.894 174.025 46.5907 175.082 45.984C176.157 45.3773 176.998 44.5453 177.604 43.488C178.228 42.4133 178.54 41.2173 178.54 39.9C178.54 38.5827 178.228 37.3953 177.604 36.338C176.998 35.2633 176.157 34.4227 175.082 33.816C174.025 33.2093 172.829 32.906 171.494 32.906C170.16 32.906 168.946 33.2093 167.854 33.816C166.78 34.4227 165.93 35.2633 165.306 36.338C164.7 37.3953 164.396 38.5827 164.396 39.9C164.396 41.2173 164.7 42.4133 165.306 43.488C165.93 44.5453 166.78 45.3773 167.854 45.984C168.946 46.5907 170.16 46.894 171.494 46.894ZM200.766 30.8V49H198.634L187.714 35.428V49H185.114V30.8H187.246L198.166 44.372V30.8H200.766ZM206.214 30.8H208.814V46.738H218.668V49H206.214V30.8ZM221.651 30.8H224.251V49H221.651V30.8ZM245.352 30.8V49H243.22L232.3 35.428V49H229.7V30.8H231.832L242.752 44.372V30.8H245.352ZM264.008 46.738V49H250.8V30.8H263.644V33.062H253.4V38.652H262.526V40.862H253.4V46.738H264.008ZM268.706 49.156C268.22 49.156 267.804 48.9913 267.458 48.662C267.111 48.3153 266.938 47.882 266.938 47.362C266.938 46.8593 267.111 46.4433 267.458 46.114C267.804 45.7673 268.22 45.594 268.706 45.594C269.191 45.594 269.598 45.7587 269.928 46.088C270.257 46.4173 270.422 46.842 270.422 47.362C270.422 47.882 270.248 48.3153 269.902 48.662C269.572 48.9913 269.174 49.156 268.706 49.156ZM286.53 49L282.604 43.41C282.119 43.4447 281.738 43.462 281.46 43.462H276.962V49H274.362V30.8H281.46C283.818 30.8 285.672 31.3633 287.024 32.49C288.376 33.6167 289.052 35.168 289.052 37.144C289.052 38.548 288.706 39.744 288.012 40.732C287.319 41.72 286.331 42.4393 285.048 42.89L289.364 49H286.53ZM281.382 41.252C283.029 41.252 284.286 40.8967 285.152 40.186C286.019 39.4753 286.452 38.4613 286.452 37.144C286.452 35.8267 286.019 34.8213 285.152 34.128C284.286 33.4173 283.029 33.062 281.382 33.062H276.962V41.252H281.382ZM300.793 49.208C298.366 49.208 296.477 48.5147 295.125 47.128C293.773 45.7413 293.097 43.748 293.097 41.148V30.8H295.697V41.044C295.697 44.944 297.404 46.894 300.819 46.894C302.483 46.894 303.757 46.4173 304.641 45.464C305.525 44.4933 305.967 43.02 305.967 41.044V30.8H308.489V41.148C308.489 43.7653 307.813 45.7673 306.461 47.154C305.109 48.5233 303.22 49.208 300.793 49.208Z" fill="white"/>
<path d="M81.3445 60.4C82.9525 60.4 84.2125 60.784 85.1245 61.552C86.0365 62.32 86.4925 63.376 86.4925 64.72C86.4925 66.064 86.0365 67.12 85.1245 67.888C84.2125 68.644 82.9525 69.022 81.3445 69.022H77.9605V73H76.6285V60.4H81.3445ZM81.3085 67.852C82.5565 67.852 83.5105 67.582 84.1705 67.042C84.8305 66.49 85.1605 65.716 85.1605 64.72C85.1605 63.7 84.8305 62.92 84.1705 62.38C83.5105 61.828 82.5565 61.552 81.3085 61.552H77.9605V67.852H81.3085ZM92.0961 63.46C93.3321 63.46 94.2801 63.772 94.9401 64.396C95.6001 65.008 95.9301 65.92 95.9301 67.132V73H94.7061V71.524C94.4181 72.016 93.9921 72.4 93.4281 72.676C92.8761 72.952 92.2161 73.09 91.4481 73.09C90.3921 73.09 89.5521 72.838 88.9281 72.334C88.3041 71.83 87.9921 71.164 87.9921 70.336C87.9921 69.532 88.2801 68.884 88.8561 68.392C89.4441 67.9 90.3741 67.654 91.6461 67.654H94.6521V67.078C94.6521 66.262 94.4241 65.644 93.9681 65.224C93.5121 64.792 92.8461 64.576 91.9701 64.576C91.3701 64.576 90.7941 64.678 90.2421 64.882C89.6901 65.074 89.2161 65.344 88.8201 65.692L88.2441 64.738C88.7241 64.33 89.3001 64.018 89.9721 63.802C90.6441 63.574 91.3521 63.46 92.0961 63.46ZM91.6461 72.082C92.3661 72.082 92.9841 71.92 93.5001 71.596C94.0161 71.26 94.4001 70.78 94.6521 70.156V68.608H91.6821C90.0621 68.608 89.2521 69.172 89.2521 70.3C89.2521 70.852 89.4621 71.29 89.8821 71.614C90.3021 71.926 90.8901 72.082 91.6461 72.082ZM103.292 73.09C102.356 73.09 101.516 72.886 100.772 72.478C100.04 72.07 99.4642 71.5 99.0442 70.768C98.6242 70.024 98.4142 69.19 98.4142 68.266C98.4142 67.342 98.6242 66.514 99.0442 65.782C99.4642 65.05 100.04 64.48 100.772 64.072C101.516 63.664 102.356 63.46 103.292 63.46C104.108 63.46 104.834 63.622 105.47 63.946C106.118 64.258 106.628 64.72 107 65.332L106.046 65.98C105.734 65.512 105.338 65.164 104.858 64.936C104.378 64.696 103.856 64.576 103.292 64.576C102.608 64.576 101.99 64.732 101.438 65.044C100.898 65.344 100.472 65.776 100.16 66.34C99.8602 66.904 99.7102 67.546 99.7102 68.266C99.7102 68.998 99.8602 69.646 100.16 70.21C100.472 70.762 100.898 71.194 101.438 71.506C101.99 71.806 102.608 71.956 103.292 71.956C103.856 71.956 104.378 71.842 104.858 71.614C105.338 71.386 105.734 71.038 106.046 70.57L107 71.218C106.628 71.83 106.118 72.298 105.47 72.622C104.822 72.934 104.096 73.09 103.292 73.09ZM113.277 73.09C112.341 73.09 111.501 72.886 110.757 72.478C110.025 72.07 109.449 71.5 109.029 70.768C108.609 70.024 108.399 69.19 108.399 68.266C108.399 67.342 108.609 66.514 109.029 65.782C109.449 65.05 110.025 64.48 110.757 64.072C111.501 63.664 112.341 63.46 113.277 63.46C114.093 63.46 114.819 63.622 115.455 63.946C116.103 64.258 116.613 64.72 116.985 65.332L116.031 65.98C115.719 65.512 115.323 65.164 114.843 64.936C114.363 64.696 113.841 64.576 113.277 64.576C112.593 64.576 111.975 64.732 111.423 65.044C110.883 65.344 110.457 65.776 110.145 66.34C109.845 66.904 109.695 67.546 109.695 68.266C109.695 68.998 109.845 69.646 110.145 70.21C110.457 70.762 110.883 71.194 111.423 71.506C111.975 71.806 112.593 71.956 113.277 71.956C113.841 71.956 114.363 71.842 114.843 71.614C115.323 71.386 115.719 71.038 116.031 70.57L116.985 71.218C116.613 71.83 116.103 72.298 115.455 72.622C114.807 72.934 114.081 73.09 113.277 73.09ZM124.337 63.46C125.225 63.46 126.029 63.664 126.749 64.072C127.469 64.468 128.033 65.032 128.441 65.764C128.849 66.496 129.053 67.33 129.053 68.266C129.053 69.214 128.849 70.054 128.441 70.786C128.033 71.518 127.469 72.088 126.749 72.496C126.041 72.892 125.237 73.09 124.337 73.09C123.569 73.09 122.873 72.934 122.249 72.622C121.637 72.298 121.133 71.83 120.737 71.218V76.492H119.459V63.532H120.683V65.404C121.067 64.78 121.571 64.3 122.195 63.964C122.831 63.628 123.545 63.46 124.337 63.46ZM124.247 71.956C124.907 71.956 125.507 71.806 126.047 71.506C126.587 71.194 127.007 70.756 127.307 70.192C127.619 69.628 127.775 68.986 127.775 68.266C127.775 67.546 127.619 66.91 127.307 66.358C127.007 65.794 126.587 65.356 126.047 65.044C125.507 64.732 124.907 64.576 124.247 64.576C123.575 64.576 122.969 64.732 122.429 65.044C121.901 65.356 121.481 65.794 121.169 66.358C120.869 66.91 120.719 67.546 120.719 68.266C120.719 68.986 120.869 69.628 121.169 70.192C121.481 70.756 121.901 71.194 122.429 71.506C122.969 71.806 123.575 71.956 124.247 71.956ZM135.705 73.09C134.793 73.09 133.971 72.886 133.239 72.478C132.507 72.058 131.931 71.482 131.511 70.75C131.091 70.018 130.881 69.19 130.881 68.266C130.881 67.342 131.091 66.514 131.511 65.782C131.931 65.05 132.507 64.48 133.239 64.072C133.971 63.664 134.793 63.46 135.705 63.46C136.617 63.46 137.439 63.664 138.171 64.072C138.903 64.48 139.473 65.05 139.881 65.782C140.301 66.514 140.511 67.342 140.511 68.266C140.511 69.19 140.301 70.018 139.881 70.75C139.473 71.482 138.903 72.058 138.171 72.478C137.439 72.886 136.617 73.09 135.705 73.09ZM135.705 71.956C136.377 71.956 136.977 71.806 137.505 71.506C138.045 71.194 138.465 70.756 138.765 70.192C139.065 69.628 139.215 68.986 139.215 68.266C139.215 67.546 139.065 66.904 138.765 66.34C138.465 65.776 138.045 65.344 137.505 65.044C136.977 64.732 136.377 64.576 135.705 64.576C135.033 64.576 134.427 64.732 133.887 65.044C133.359 65.344 132.939 65.776 132.627 66.34C132.327 66.904 132.177 67.546 132.177 68.266C132.177 68.986 132.327 69.628 132.627 70.192C132.939 70.756 133.359 71.194 133.887 71.506C134.427 71.806 135.033 71.956 135.705 71.956ZM150.388 63.532V73H149.11V69.058C148.018 69.538 146.944 69.778 145.888 69.778C144.748 69.778 143.86 69.52 143.224 69.004C142.588 68.476 142.27 67.69 142.27 66.646V63.532H143.548V66.574C143.548 67.282 143.776 67.822 144.232 68.194C144.688 68.554 145.318 68.734 146.122 68.734C147.01 68.734 148.006 68.5 149.11 68.032V63.532H150.388ZM157.456 68.788H155.296V73H154.018V63.532H155.296V67.69H157.474L160.804 63.532H162.19L158.464 68.122L162.46 73H160.948L157.456 68.788ZM167.559 63.46C168.795 63.46 169.743 63.772 170.403 64.396C171.063 65.008 171.393 65.92 171.393 67.132V73H170.169V71.524C169.881 72.016 169.455 72.4 168.891 72.676C168.339 72.952 167.679 73.09 166.911 73.09C165.855 73.09 165.015 72.838 164.391 72.334C163.767 71.83 163.455 71.164 163.455 70.336C163.455 69.532 163.743 68.884 164.319 68.392C164.907 67.9 165.837 67.654 167.109 67.654H170.115V67.078C170.115 66.262 169.887 65.644 169.431 65.224C168.975 64.792 168.309 64.576 167.433 64.576C166.833 64.576 166.257 64.678 165.705 64.882C165.153 65.074 164.679 65.344 164.283 65.692L163.707 64.738C164.187 64.33 164.763 64.018 165.435 63.802C166.107 63.574 166.815 63.46 167.559 63.46ZM167.109 72.082C167.829 72.082 168.447 71.92 168.963 71.596C169.479 71.26 169.863 70.78 170.115 70.156V68.608H167.145C165.525 68.608 164.715 69.172 164.715 70.3C164.715 70.852 164.925 71.29 165.345 71.614C165.765 71.926 166.353 72.082 167.109 72.082ZM179.506 63.532H180.784V71.056L187.102 63.532H188.236V73H186.958V65.476L180.658 73H179.506V63.532ZM200.048 68.788H197.888V73H196.61V63.532H197.888V67.69H200.066L203.396 63.532H204.782L201.056 68.122L205.052 73H203.54L200.048 68.788ZM209.098 63.46C210.046 63.46 210.898 63.67 211.654 64.09C212.422 64.498 213.022 65.068 213.454 65.8C213.898 66.532 214.12 67.354 214.12 68.266C214.12 69.178 213.898 70.006 213.454 70.75C213.022 71.482 212.422 72.058 211.654 72.478C210.898 72.898 210.046 73.108 209.098 73.108C208.306 73.108 207.58 72.988 206.92 72.748C206.26 72.496 205.702 72.136 205.246 71.668L206.002 70.912C206.806 71.668 207.82 72.046 209.044 72.046C209.728 72.046 210.346 71.902 210.898 71.614C211.462 71.326 211.918 70.924 212.266 70.408C212.626 69.892 212.836 69.316 212.896 68.68H207.838V67.708H212.878C212.746 66.76 212.326 65.992 211.618 65.404C210.91 64.804 210.052 64.504 209.044 64.504C207.82 64.504 206.806 64.882 206.002 65.638L205.246 64.9C205.702 64.432 206.26 64.078 206.92 63.838C207.58 63.586 208.306 63.46 209.098 63.46ZM229.875 63.532V73H216.807V63.532H218.085V71.884H222.729V63.532H224.007V71.884H228.597V63.532H229.875ZM238.114 63.766C238.99 63.766 239.77 63.964 240.454 64.36C241.15 64.744 241.69 65.29 242.074 65.998C242.458 66.694 242.65 67.492 242.65 68.392C242.65 69.316 242.446 70.138 242.038 70.858C241.642 71.566 241.084 72.118 240.364 72.514C239.644 72.91 238.816 73.108 237.88 73.108C236.308 73.108 235.09 72.556 234.226 71.452C233.362 70.348 232.93 68.824 232.93 66.88C232.93 64.852 233.314 63.298 234.082 62.218C234.862 61.138 236.074 60.406 237.718 60.022L241.966 59.05L242.182 60.22L238.186 61.138C236.83 61.438 235.834 61.972 235.198 62.74C234.562 63.496 234.214 64.618 234.154 66.106C234.538 65.374 235.072 64.804 235.756 64.396C236.44 63.976 237.226 63.766 238.114 63.766ZM237.916 72.046C238.576 72.046 239.164 71.896 239.68 71.596C240.208 71.284 240.616 70.852 240.904 70.3C241.204 69.748 241.354 69.124 241.354 68.428C241.354 67.732 241.21 67.12 240.922 66.592C240.634 66.064 240.226 65.656 239.698 65.368C239.182 65.068 238.588 64.918 237.916 64.918C237.244 64.918 236.644 65.068 236.116 65.368C235.6 65.656 235.192 66.064 234.892 66.592C234.604 67.12 234.46 67.732 234.46 68.428C234.46 69.124 234.604 69.748 234.892 70.3C235.192 70.852 235.606 71.284 236.134 71.596C236.662 71.896 237.256 72.046 237.916 72.046ZM247.893 63.46C248.841 63.46 249.693 63.67 250.449 64.09C251.217 64.498 251.817 65.068 252.249 65.8C252.693 66.532 252.915 67.354 252.915 68.266C252.915 69.178 252.693 70.006 252.249 70.75C251.817 71.482 251.217 72.058 250.449 72.478C249.693 72.898 248.841 73.108 247.893 73.108C247.101 73.108 246.375 72.988 245.715 72.748C245.055 72.496 244.497 72.136 244.041 71.668L244.797 70.912C245.601 71.668 246.615 72.046 247.839 72.046C248.523 72.046 249.141 71.902 249.693 71.614C250.257 71.326 250.713 70.924 251.061 70.408C251.421 69.892 251.631 69.316 251.691 68.68H246.633V67.708H251.673C251.541 66.76 251.121 65.992 250.413 65.404C249.705 64.804 248.847 64.504 247.839 64.504C246.615 64.504 245.601 64.882 244.797 65.638L244.041 64.9C244.497 64.432 245.055 64.078 245.715 63.838C246.375 63.586 247.101 63.46 247.893 63.46ZM259.04 68.788H256.88V73H255.602V63.532H256.88V67.69H259.058L262.388 63.532H263.774L260.048 68.122L264.044 73H262.532L259.04 68.788Z" fill="white"/>
<defs>
<linearGradient id="paint0_linear" x1="7" y1="12" x2="335.082" y2="113.456" gradientUnits="userSpaceOnUse">
<stop stop-color="#7790EA"/>
<stop offset="1" stop-color="#3458D8"/>
</linearGradient>
</defs>
</svg>
