<svg width="350" height="100" viewBox="0 0 350 100" fill="none" xmlns="http://www.w3.org/2000/svg">
<path d="M25.2987 34.9H37.9837C41.1657 34.9 43.9894 35.5307 46.4547 36.792C48.92 38.0533 50.8264 39.8307 52.1737 42.124C53.5497 44.3887 54.2377 46.9973 54.2377 49.95C54.2377 52.9027 53.5497 55.5257 52.1737 57.819C50.8264 60.0837 48.92 61.8467 46.4547 63.108C43.9894 64.3693 41.1657 65 37.9837 65H25.2987V34.9ZM37.7257 61.259C40.1624 61.259 42.298 60.786 44.1327 59.84C45.996 58.894 47.4294 57.5753 48.4327 55.884C49.436 54.164 49.9377 52.186 49.9377 49.95C49.9377 47.714 49.436 45.7503 48.4327 44.059C47.4294 42.339 45.996 41.006 44.1327 40.06C42.298 39.114 40.1624 38.641 37.7257 38.641H29.5987V61.259H37.7257ZM60.2221 42.21H64.3501V65H60.2221V42.21ZM62.2861 37.824C61.4834 37.824 60.8097 37.566 60.2651 37.05C59.7491 36.534 59.4911 35.9033 59.4911 35.158C59.4911 34.4127 59.7491 33.782 60.2651 33.266C60.8097 32.7213 61.4834 32.449 62.2861 32.449C63.0887 32.449 63.7481 32.707 64.2641 33.223C64.8087 33.7103 65.0811 34.3267 65.0811 35.072C65.0811 35.846 64.8087 36.5053 64.2641 37.05C63.7481 37.566 63.0887 37.824 62.2861 37.824ZM78.7678 65.258C76.9045 65.258 75.1128 65.0143 73.3928 64.527C71.6728 64.011 70.3255 63.366 69.3508 62.592L71.0708 59.324C72.0742 60.0407 73.2925 60.614 74.7258 61.044C76.1592 61.474 77.6068 61.689 79.0688 61.689C82.6808 61.689 84.4868 60.657 84.4868 58.593C84.4868 57.905 84.2432 57.3603 83.7558 56.959C83.2685 56.5577 82.6522 56.271 81.9068 56.099C81.1902 55.8983 80.1582 55.6833 78.8108 55.454C76.9762 55.1673 75.4712 54.8377 74.2958 54.465C73.1492 54.0923 72.1602 53.4617 71.3288 52.573C70.4975 51.6843 70.0818 50.4373 70.0818 48.832C70.0818 46.768 70.9418 45.1197 72.6618 43.887C74.3818 42.6257 76.6895 41.995 79.5848 41.995C81.1042 41.995 82.6235 42.1813 84.1428 42.554C85.6622 42.9267 86.9092 43.4283 87.8838 44.059L86.1208 47.327C84.2575 46.123 82.0645 45.521 79.5418 45.521C77.7932 45.521 76.4602 45.8077 75.5428 46.381C74.6255 46.9543 74.1668 47.714 74.1668 48.66C74.1668 49.4053 74.4248 49.993 74.9408 50.423C75.4568 50.853 76.0875 51.1683 76.8328 51.369C77.6068 51.5697 78.6818 51.799 80.0578 52.057C81.8925 52.3723 83.3688 52.7163 84.4868 53.089C85.6335 53.433 86.6082 54.035 87.4108 54.895C88.2135 55.755 88.6148 56.959 88.6148 58.507C88.6148 60.571 87.7262 62.2193 85.9488 63.452C84.2002 64.656 81.8065 65.258 78.7678 65.258ZM106.588 63.667C105.986 64.183 105.241 64.5843 104.352 64.871C103.463 65.129 102.546 65.258 101.6 65.258C99.3065 65.258 97.5292 64.6417 96.2678 63.409C95.0065 62.1763 94.3758 60.4133 94.3758 58.12V45.607H90.5058V42.21H94.3758V37.222H98.5038V42.21H105.04V45.607H98.5038V57.948C98.5038 59.1807 98.8048 60.1267 99.4068 60.786C100.038 61.4453 100.926 61.775 102.073 61.775C103.334 61.775 104.409 61.4167 105.298 60.7L106.588 63.667ZM119.878 41.995C123.031 41.995 125.439 42.769 127.102 44.317C128.793 45.865 129.639 48.1727 129.639 51.24V65H125.726V61.99C125.038 63.0507 124.049 63.8677 122.759 64.441C121.497 64.9857 119.992 65.258 118.244 65.258C115.692 65.258 113.643 64.6417 112.095 63.409C110.575 62.1763 109.816 60.5567 109.816 58.55C109.816 56.5433 110.547 54.938 112.009 53.734C113.471 52.5013 115.793 51.885 118.975 51.885H125.511V51.068C125.511 49.2907 124.995 47.929 123.963 46.983C122.931 46.037 121.411 45.564 119.405 45.564C118.057 45.564 116.739 45.7933 115.449 46.252C114.159 46.682 113.069 47.2697 112.181 48.015L110.461 44.919C111.636 43.973 113.041 43.2563 114.675 42.769C116.309 42.253 118.043 41.995 119.878 41.995ZM118.932 62.076C120.508 62.076 121.87 61.732 123.017 61.044C124.163 60.3273 124.995 59.324 125.511 58.034V54.852H119.147C115.649 54.852 113.901 56.0273 113.901 58.378C113.901 59.5247 114.345 60.4277 115.234 61.087C116.122 61.7463 117.355 62.076 118.932 62.076ZM149.447 41.995C152.342 41.995 154.635 42.8407 156.327 44.532C158.047 46.1947 158.907 48.6457 158.907 51.885V65H154.779V52.358C154.779 50.1507 154.248 48.488 153.188 47.37C152.127 46.252 150.608 45.693 148.63 45.693C146.394 45.693 144.631 46.3523 143.341 47.671C142.051 48.961 141.406 50.8243 141.406 53.261V65H137.278V42.21H141.234V45.65C142.065 44.4747 143.183 43.5717 144.588 42.941C146.021 42.3103 147.641 41.995 149.447 41.995ZM179.36 63.667C178.758 64.183 178.013 64.5843 177.124 64.871C176.236 65.129 175.318 65.258 174.372 65.258C172.079 65.258 170.302 64.6417 169.04 63.409C167.779 62.1763 167.148 60.4133 167.148 58.12V45.607H163.278V42.21H167.148V37.222H171.276V42.21H177.812V45.607H171.276V57.948C171.276 59.1807 171.577 60.1267 172.179 60.786C172.81 61.4453 173.699 61.775 174.845 61.775C176.107 61.775 177.182 61.4167 178.07 60.7L179.36 63.667ZM182.469 51.412H194.036V54.981H182.469V51.412ZM214.876 65.344C211.837 65.344 209.1 64.6847 206.663 63.366C204.226 62.0187 202.306 60.1697 200.901 57.819C199.525 55.4683 198.837 52.8453 198.837 49.95C198.837 47.0547 199.525 44.4317 200.901 42.081C202.306 39.7303 204.226 37.8957 206.663 36.577C209.1 35.2297 211.837 34.556 214.876 34.556C217.886 34.556 220.609 35.2297 223.046 36.577C225.483 37.8957 227.389 39.7303 228.765 42.081C230.141 44.403 230.829 47.026 230.829 49.95C230.829 52.874 230.141 55.5113 228.765 57.862C227.389 60.184 225.483 62.0187 223.046 63.366C220.609 64.6847 217.886 65.344 214.876 65.344ZM214.876 61.517C217.083 61.517 219.061 61.0153 220.81 60.012C222.587 59.0087 223.978 57.6327 224.981 55.884C226.013 54.1067 226.529 52.1287 226.529 49.95C226.529 47.7713 226.013 45.8077 224.981 44.059C223.978 42.2817 222.587 40.8913 220.81 39.888C219.061 38.8847 217.083 38.383 214.876 38.383C212.669 38.383 210.662 38.8847 208.856 39.888C207.079 40.8913 205.674 42.2817 204.642 44.059C203.639 45.8077 203.137 47.7713 203.137 49.95C203.137 52.1287 203.639 54.1067 204.642 55.884C205.674 57.6327 207.079 59.0087 208.856 60.012C210.662 61.0153 212.669 61.517 214.876 61.517ZM245.141 36.233C242.676 36.233 241.443 37.566 241.443 40.232V42.21H248.065V45.607H241.529V65H237.401V45.607H233.531V42.21H237.401V40.189C237.401 37.9243 238.061 36.1327 239.379 34.814C240.698 33.4953 242.547 32.836 244.926 32.836C245.844 32.836 246.704 32.9507 247.506 33.18C248.309 33.4093 248.997 33.739 249.57 34.169L248.323 37.308C247.377 36.5913 246.317 36.233 245.141 36.233ZM260.3 36.233C257.835 36.233 256.602 37.566 256.602 40.232V42.21H263.224V45.607H256.688V65H252.56V45.607H248.69V42.21H252.56V40.189C252.56 37.9243 253.22 36.1327 254.538 34.814C255.857 33.4953 257.706 32.836 260.085 32.836C261.003 32.836 261.863 32.9507 262.665 33.18C263.468 33.4093 264.156 33.739 264.729 34.169L263.482 37.308C262.536 36.5913 261.476 36.233 260.3 36.233ZM270.577 42.21H274.705V65H270.577V42.21ZM272.641 37.824C271.839 37.824 271.165 37.566 270.62 37.05C270.104 36.534 269.846 35.9033 269.846 35.158C269.846 34.4127 270.104 33.782 270.62 33.266C271.165 32.7213 271.839 32.449 272.641 32.449C273.444 32.449 274.103 32.707 274.619 33.223C275.164 33.7103 275.436 34.3267 275.436 35.072C275.436 35.846 275.164 36.5053 274.619 37.05C274.103 37.566 273.444 37.824 272.641 37.824ZM292.504 65.258C290.182 65.258 288.103 64.7563 286.269 63.753C284.463 62.7497 283.044 61.3737 282.012 59.625C280.98 57.8477 280.464 55.841 280.464 53.605C280.464 51.369 280.98 49.3767 282.012 47.628C283.044 45.8507 284.463 44.4747 286.269 43.5C288.103 42.4967 290.182 41.995 292.504 41.995C294.568 41.995 296.402 42.4107 298.008 43.242C299.642 44.0733 300.903 45.2773 301.792 46.854L298.653 48.875C297.936 47.7857 297.047 46.9687 295.987 46.424C294.926 45.8793 293.751 45.607 292.461 45.607C290.97 45.607 289.623 45.9367 288.419 46.596C287.243 47.2553 286.312 48.2013 285.624 49.434C284.964 50.638 284.635 52.0283 284.635 53.605C284.635 55.2103 284.964 56.6293 285.624 57.862C286.312 59.066 287.243 59.9977 288.419 60.657C289.623 61.3163 290.97 61.646 292.461 61.646C293.751 61.646 294.926 61.3737 295.987 60.829C297.047 60.2843 297.936 59.4673 298.653 58.378L301.792 60.356C300.903 61.9327 299.642 63.151 298.008 64.011C296.402 64.8423 294.568 65.258 292.504 65.258ZM327.397 53.734C327.397 54.0493 327.369 54.465 327.311 54.981H308.821C309.079 56.9877 309.954 58.6073 311.444 59.84C312.964 61.044 314.841 61.646 317.077 61.646C319.801 61.646 321.994 60.7287 323.656 58.894L325.935 61.56C324.903 62.764 323.613 63.6813 322.065 64.312C320.546 64.9427 318.84 65.258 316.948 65.258C314.54 65.258 312.405 64.7707 310.541 63.796C308.678 62.7927 307.23 61.4023 306.198 59.625C305.195 57.8477 304.693 55.841 304.693 53.605C304.693 51.3977 305.181 49.4053 306.155 47.628C307.159 45.8507 308.52 44.4747 310.24 43.5C311.989 42.4967 313.953 41.995 316.131 41.995C318.31 41.995 320.245 42.4967 321.936 43.5C323.656 44.4747 324.989 45.8507 325.935 47.628C326.91 49.4053 327.397 51.4407 327.397 53.734ZM316.131 45.478C314.153 45.478 312.491 46.08 311.143 47.284C309.825 48.488 309.051 50.0647 308.821 52.014H323.441C323.212 50.0933 322.424 48.531 321.076 47.327C319.758 46.0943 318.109 45.478 316.131 45.478Z" fill="url(#paint0_linear)"/>
<defs>
<linearGradient id="paint0_linear" x1="13" y1="50" x2="337" y2="50" gradientUnits="userSpaceOnUse">
<stop stop-color="#3458D8"/>
<stop offset="1" stop-color="#47E733"/>
</linearGradient>
</defs>
</svg>
