<svg width="350" height="100" viewBox="0 0 350 100" fill="none" xmlns="http://www.w3.org/2000/svg">
<path d="M69.1796 69.44C66.2829 69.44 63.4779 69 60.7646 68.12C58.0879 67.2033 55.9796 66.03 54.4396 64.6L56.4746 60.31C57.9412 61.63 59.8112 62.7117 62.0846 63.555C64.3946 64.3617 66.7596 64.765 69.1796 64.765C72.3696 64.765 74.7529 64.2333 76.3296 63.17C77.9062 62.07 78.6946 60.6217 78.6946 58.825C78.6946 57.505 78.2546 56.4417 77.3746 55.635C76.5312 54.7917 75.4679 54.15 74.1846 53.71C72.9379 53.27 71.1596 52.775 68.8496 52.225C65.9529 51.5283 63.6062 50.8317 61.8096 50.135C60.0496 49.4383 58.5279 48.375 57.2446 46.945C55.9979 45.4783 55.3746 43.5167 55.3746 41.06C55.3746 39.0067 55.9062 37.155 56.9696 35.505C58.0696 33.855 59.7196 32.535 61.9196 31.545C64.1196 30.555 66.8512 30.06 70.1146 30.06C72.3879 30.06 74.6246 30.3533 76.8246 30.94C79.0246 31.5267 80.9129 32.37 82.4896 33.47L80.6746 37.87C79.0612 36.8433 77.3379 36.0733 75.5046 35.56C73.6712 35.01 71.8746 34.735 70.1146 34.735C66.9979 34.735 64.6512 35.3033 63.0746 36.44C61.5346 37.5767 60.7646 39.0433 60.7646 40.84C60.7646 42.16 61.2046 43.2417 62.0846 44.085C62.9646 44.8917 64.0462 45.5333 65.3296 46.01C66.6496 46.45 68.4279 46.9267 70.6646 47.44C73.5612 48.1367 75.8896 48.8333 77.6496 49.53C79.4096 50.2267 80.9129 51.29 82.1596 52.72C83.4429 54.15 84.0846 56.075 84.0846 58.495C84.0846 60.5117 83.5346 62.3633 82.4346 64.05C81.3346 65.7 79.6662 67.02 77.4296 68.01C75.1929 68.9633 72.4429 69.44 69.1796 69.44ZM117.915 67.295C117.145 67.955 116.191 68.4683 115.055 68.835C113.918 69.165 112.745 69.33 111.535 69.33C108.601 69.33 106.328 68.5417 104.715 66.965C103.101 65.3883 102.295 63.1333 102.295 60.2V44.195H97.3447V39.85H102.295V33.47H107.575V39.85H115.935V44.195H107.575V59.98C107.575 61.5567 107.96 62.7667 108.73 63.61C109.536 64.4533 110.673 64.875 112.14 64.875C113.753 64.875 115.128 64.4167 116.265 63.5L117.915 67.295ZM161.643 39.85V69H156.638V64.6C155.575 66.1033 154.163 67.2767 152.403 68.12C150.68 68.9267 148.791 69.33 146.738 69.33C142.851 69.33 139.79 68.2667 137.553 66.14C135.316 63.9767 134.198 60.805 134.198 56.625V39.85H139.478V56.02C139.478 58.8433 140.156 60.9883 141.513 62.455C142.87 63.885 144.813 64.6 147.343 64.6C150.13 64.6 152.33 63.7567 153.943 62.07C155.556 60.3833 156.363 58 156.363 54.92V39.85H161.643ZM203.485 64.655V69H179.065V65.59L196.28 44.195H179.395V39.85H203.045V43.315L185.83 64.655H203.485ZM232.782 69.33C229.885 69.33 227.282 68.6883 224.972 67.405C222.662 66.1217 220.847 64.3617 219.527 62.125C218.243 59.8517 217.602 57.285 217.602 54.425C217.602 51.565 218.243 49.0167 219.527 46.78C220.847 44.5067 222.662 42.7467 224.972 41.5C227.282 40.2167 229.885 39.575 232.782 39.575C235.678 39.575 238.263 40.2167 240.537 41.5C242.847 42.7467 244.643 44.5067 245.927 46.78C247.247 49.0167 247.907 51.565 247.907 54.425C247.907 57.285 247.247 59.8517 245.927 62.125C244.643 64.3617 242.847 66.1217 240.537 67.405C238.263 68.6883 235.678 69.33 232.782 69.33ZM232.782 64.71C234.652 64.71 236.32 64.2883 237.787 63.445C239.29 62.565 240.463 61.355 241.307 59.815C242.15 58.2383 242.572 56.4417 242.572 54.425C242.572 52.4083 242.15 50.63 241.307 49.09C240.463 47.5133 239.29 46.3033 237.787 45.46C236.32 44.6167 234.652 44.195 232.782 44.195C230.912 44.195 229.225 44.6167 227.722 45.46C226.255 46.3033 225.082 47.5133 224.202 49.09C223.358 50.63 222.937 52.4083 222.937 54.425C222.937 56.4417 223.358 58.2383 224.202 59.815C225.082 61.355 226.255 62.565 227.722 63.445C229.225 64.2883 230.912 64.71 232.782 64.71ZM280.949 39.575C284.652 39.575 287.586 40.6567 289.749 42.82C291.949 44.9467 293.049 48.0817 293.049 52.225V69H287.769V52.83C287.769 50.0067 287.091 47.88 285.734 46.45C284.377 45.02 282.434 44.305 279.904 44.305C277.044 44.305 274.789 45.1483 273.139 46.835C271.489 48.485 270.664 50.8683 270.664 53.985V69H265.384V39.85H270.444V44.25C271.507 42.7467 272.937 41.5917 274.734 40.785C276.567 39.9783 278.639 39.575 280.949 39.575Z" fill="#0984E3"/>
<path d="M239.033 32.12C238.659 32.12 238.339 31.9933 238.073 31.74C237.806 31.4733 237.673 31.14 237.673 30.74C237.673 30.3533 237.806 30.0333 238.073 29.78C238.339 29.5133 238.659 29.38 239.033 29.38C239.406 29.38 239.719 29.5067 239.973 29.76C240.226 30.0133 240.353 30.34 240.353 30.74C240.353 31.14 240.219 31.4733 239.953 31.74C239.699 31.9933 239.393 32.12 239.033 32.12ZM251.19 32.12C250.11 32.12 249.143 31.8867 248.29 31.42C247.45 30.9533 246.79 30.3133 246.31 29.5C245.83 28.6733 245.59 27.74 245.59 26.7C245.59 25.66 245.83 24.7333 246.31 23.92C246.79 23.0933 247.45 22.4533 248.29 22C249.143 21.5333 250.11 21.3 251.19 21.3C252.15 21.3 253.003 21.4933 253.75 21.88C254.51 22.2667 255.096 22.8267 255.51 23.56L254.05 24.5C253.716 23.9933 253.303 23.6133 252.81 23.36C252.316 23.1067 251.77 22.98 251.17 22.98C250.476 22.98 249.85 23.1333 249.29 23.44C248.743 23.7467 248.31 24.1867 247.99 24.76C247.683 25.32 247.53 25.9667 247.53 26.7C247.53 27.4467 247.683 28.1067 247.99 28.68C248.31 29.24 248.743 29.6733 249.29 29.98C249.85 30.2867 250.476 30.44 251.17 30.44C251.77 30.44 252.316 30.3133 252.81 30.06C253.303 29.8067 253.716 29.4267 254.05 28.92L255.51 29.84C255.096 30.5733 254.51 31.14 253.75 31.54C253.003 31.9267 252.15 32.12 251.19 32.12ZM266.079 32.12C265.026 32.12 264.079 31.8867 263.239 31.42C262.399 30.9533 261.739 30.3133 261.259 29.5C260.792 28.6733 260.559 27.74 260.559 26.7C260.559 25.66 260.792 24.7333 261.259 23.92C261.739 23.0933 262.399 22.4533 263.239 22C264.079 21.5333 265.026 21.3 266.079 21.3C267.132 21.3 268.072 21.5333 268.899 22C269.739 22.4533 270.392 23.0933 270.859 23.92C271.339 24.7333 271.579 25.66 271.579 26.7C271.579 27.74 271.339 28.6733 270.859 29.5C270.392 30.3133 269.739 30.9533 268.899 31.42C268.072 31.8867 267.132 32.12 266.079 32.12ZM266.079 30.44C266.759 30.44 267.366 30.2867 267.899 29.98C268.446 29.66 268.872 29.22 269.179 28.66C269.486 28.0867 269.639 27.4333 269.639 26.7C269.639 25.9667 269.486 25.32 269.179 24.76C268.872 24.1867 268.446 23.7467 267.899 23.44C267.366 23.1333 266.759 22.98 266.079 22.98C265.399 22.98 264.786 23.1333 264.239 23.44C263.706 23.7467 263.279 24.1867 262.959 24.76C262.652 25.32 262.499 25.9667 262.499 26.7C262.499 27.4333 262.652 28.0867 262.959 28.66C263.279 29.22 263.706 29.66 264.239 29.98C264.786 30.2867 265.399 30.44 266.079 30.44ZM291.194 21.3C292.528 21.3 293.581 21.6867 294.354 22.46C295.141 23.2333 295.534 24.38 295.534 25.9V32H293.614V26.12C293.614 25.0933 293.374 24.32 292.894 23.8C292.428 23.28 291.754 23.02 290.874 23.02C289.901 23.02 289.128 23.3267 288.554 23.94C287.981 24.54 287.694 25.4067 287.694 26.54V32H285.774V26.12C285.774 25.0933 285.534 24.32 285.054 23.8C284.588 23.28 283.914 23.02 283.034 23.02C282.061 23.02 281.288 23.3267 280.714 23.94C280.141 24.54 279.854 25.4067 279.854 26.54V32H277.934V21.4H279.774V22.98C280.161 22.4333 280.668 22.02 281.294 21.74C281.921 21.4467 282.634 21.3 283.434 21.3C284.261 21.3 284.994 21.4667 285.634 21.8C286.274 22.1333 286.768 22.62 287.114 23.26C287.514 22.6467 288.068 22.1667 288.774 21.82C289.494 21.4733 290.301 21.3 291.194 21.3Z" fill="#0984E3"/>
</svg>
