<svg width="350" height="100" viewBox="0 0 350 100" fill="none" xmlns="http://www.w3.org/2000/svg">
<path d="M91.5867 67.5V85H89.7617V76.925H78.8117V85H76.9617V67.5H78.8117V75.3H89.7617V67.5H91.5867ZM102.494 85.125C101.227 85.125 100.086 84.8417 99.0689 84.275C98.0523 83.6917 97.2523 82.8917 96.6689 81.875C96.0856 80.8583 95.7939 79.7083 95.7939 78.425C95.7939 77.1417 96.0856 75.9917 96.6689 74.975C97.2523 73.9583 98.0523 73.1667 99.0689 72.6C100.086 72.0333 101.227 71.75 102.494 71.75C103.761 71.75 104.902 72.0333 105.919 72.6C106.936 73.1667 107.727 73.9583 108.294 74.975C108.877 75.9917 109.169 77.1417 109.169 78.425C109.169 79.7083 108.877 80.8583 108.294 81.875C107.727 82.8917 106.936 83.6917 105.919 84.275C104.902 84.8417 103.761 85.125 102.494 85.125ZM102.494 83.55C103.427 83.55 104.261 83.3417 104.994 82.925C105.744 82.4917 106.327 81.8833 106.744 81.1C107.161 80.3167 107.369 79.425 107.369 78.425C107.369 77.425 107.161 76.5333 106.744 75.75C106.327 74.9667 105.744 74.3667 104.994 73.95C104.261 73.5167 103.427 73.3 102.494 73.3C101.561 73.3 100.719 73.5167 99.9689 73.95C99.2356 74.3667 98.6523 74.9667 98.2189 75.75C97.8023 76.5333 97.5939 77.425 97.5939 78.425C97.5939 79.425 97.8023 80.3167 98.2189 81.1C98.6523 81.8833 99.2356 82.4917 99.9689 82.925C100.719 83.3417 101.561 83.55 102.494 83.55ZM121.338 78.2C123.121 78.6167 124.013 79.6917 124.013 81.425C124.013 82.575 123.588 83.4583 122.738 84.075C121.888 84.6917 120.621 85 118.938 85H112.963V71.85H118.763C120.263 71.85 121.438 72.1417 122.288 72.725C123.138 73.3083 123.563 74.1417 123.563 75.225C123.563 75.9417 123.363 76.5583 122.963 77.075C122.579 77.575 122.038 77.95 121.338 78.2ZM114.688 77.7H118.638C119.654 77.7 120.429 77.5083 120.963 77.125C121.513 76.7417 121.788 76.1833 121.788 75.45C121.788 74.7167 121.513 74.1667 120.963 73.8C120.429 73.4333 119.654 73.25 118.638 73.25H114.688V77.7ZM118.863 83.6C119.996 83.6 120.846 83.4167 121.413 83.05C121.979 82.6833 122.263 82.1083 122.263 81.325C122.263 80.5417 122.004 79.9667 121.488 79.6C120.971 79.2167 120.154 79.025 119.038 79.025H114.688V83.6H118.863ZM133.597 85.125C132.331 85.125 131.189 84.8417 130.172 84.275C129.156 83.6917 128.356 82.8917 127.772 81.875C127.189 80.8583 126.897 79.7083 126.897 78.425C126.897 77.1417 127.189 75.9917 127.772 74.975C128.356 73.9583 129.156 73.1667 130.172 72.6C131.189 72.0333 132.331 71.75 133.597 71.75C134.864 71.75 136.006 72.0333 137.022 72.6C138.039 73.1667 138.831 73.9583 139.397 74.975C139.981 75.9917 140.272 77.1417 140.272 78.425C140.272 79.7083 139.981 80.8583 139.397 81.875C138.831 82.8917 138.039 83.6917 137.022 84.275C136.006 84.8417 134.864 85.125 133.597 85.125ZM133.597 83.55C134.531 83.55 135.364 83.3417 136.097 82.925C136.847 82.4917 137.431 81.8833 137.847 81.1C138.264 80.3167 138.472 79.425 138.472 78.425C138.472 77.425 138.264 76.5333 137.847 75.75C137.431 74.9667 136.847 74.3667 136.097 73.95C135.364 73.5167 134.531 73.3 133.597 73.3C132.664 73.3 131.822 73.5167 131.072 73.95C130.339 74.3667 129.756 74.9667 129.322 75.75C128.906 76.5333 128.697 77.425 128.697 78.425C128.697 79.425 128.906 80.3167 129.322 81.1C129.756 81.8833 130.339 82.4917 131.072 82.925C131.822 83.3417 132.664 83.55 133.597 83.55ZM149.566 85.125C148.266 85.125 147.099 84.8417 146.066 84.275C145.049 83.7083 144.249 82.9167 143.666 81.9C143.083 80.8667 142.791 79.7083 142.791 78.425C142.791 77.1417 143.083 75.9917 143.666 74.975C144.249 73.9583 145.049 73.1667 146.066 72.6C147.099 72.0333 148.266 71.75 149.566 71.75C150.699 71.75 151.708 71.975 152.591 72.425C153.491 72.8583 154.199 73.5 154.716 74.35L153.391 75.25C152.958 74.6 152.408 74.1167 151.741 73.8C151.074 73.4667 150.349 73.3 149.566 73.3C148.616 73.3 147.758 73.5167 146.991 73.95C146.241 74.3667 145.649 74.9667 145.216 75.75C144.799 76.5333 144.591 77.425 144.591 78.425C144.591 79.4417 144.799 80.3417 145.216 81.125C145.649 81.8917 146.241 82.4917 146.991 82.925C147.758 83.3417 148.616 83.55 149.566 83.55C150.349 83.55 151.074 83.3917 151.741 83.075C152.408 82.7583 152.958 82.275 153.391 81.625L154.716 82.525C154.199 83.375 153.491 84.025 152.591 84.475C151.691 84.9083 150.683 85.125 149.566 85.125ZM167.159 73.425H162.184V85H160.409V73.425H155.434V71.85H167.159V73.425ZM169.725 71.85H171.5V77.675H179.775V71.85H181.55V85H179.775V79.2H171.5V85H169.725V71.85ZM191.12 71.75C192.837 71.75 194.154 72.1833 195.07 73.05C195.987 73.9 196.445 75.1667 196.445 76.85V85H194.745V82.95C194.345 83.6333 193.754 84.1667 192.97 84.55C192.204 84.9333 191.287 85.125 190.22 85.125C188.754 85.125 187.587 84.775 186.72 84.075C185.854 83.375 185.42 82.45 185.42 81.3C185.42 80.1833 185.82 79.2833 186.62 78.6C187.437 77.9167 188.729 77.575 190.495 77.575H194.67V76.775C194.67 75.6417 194.354 74.7833 193.72 74.2C193.087 73.6 192.162 73.3 190.945 73.3C190.112 73.3 189.312 73.4417 188.545 73.725C187.779 73.9917 187.12 74.3667 186.57 74.85L185.77 73.525C186.437 72.9583 187.237 72.525 188.17 72.225C189.104 71.9083 190.087 71.75 191.12 71.75ZM190.495 83.725C191.495 83.725 192.354 83.5 193.07 83.05C193.787 82.5833 194.32 81.9167 194.67 81.05V78.9H190.545C188.295 78.9 187.17 79.6833 187.17 81.25C187.17 82.0167 187.462 82.625 188.045 83.075C188.629 83.5083 189.445 83.725 190.495 83.725ZM211.271 71.85V85H209.646V80.65H205.521H205.021L201.971 85H200.046L203.321 80.4C202.304 80.1167 201.521 79.6333 200.971 78.95C200.421 78.2667 200.146 77.4 200.146 76.35C200.146 74.8833 200.646 73.7667 201.646 73C202.646 72.2333 204.012 71.85 205.746 71.85H211.271ZM201.946 76.4C201.946 78.35 203.187 79.325 205.671 79.325H209.646V73.425H205.796C203.229 73.425 201.946 74.4167 201.946 76.4ZM228.375 85.125C227.075 85.125 225.908 84.8417 224.875 84.275C223.858 83.7083 223.058 82.9167 222.475 81.9C221.891 80.8667 221.6 79.7083 221.6 78.425C221.6 77.1417 221.891 75.9917 222.475 74.975C223.058 73.9583 223.858 73.1667 224.875 72.6C225.908 72.0333 227.075 71.75 228.375 71.75C229.508 71.75 230.516 71.975 231.4 72.425C232.3 72.8583 233.008 73.5 233.525 74.35L232.2 75.25C231.766 74.6 231.216 74.1167 230.55 73.8C229.883 73.4667 229.158 73.3 228.375 73.3C227.425 73.3 226.566 73.5167 225.8 73.95C225.05 74.3667 224.458 74.9667 224.025 75.75C223.608 76.5333 223.4 77.425 223.4 78.425C223.4 79.4417 223.608 80.3417 224.025 81.125C224.458 81.8917 225.05 82.4917 225.8 82.925C226.566 83.3417 227.425 83.55 228.375 83.55C229.158 83.55 229.883 83.3917 230.55 83.075C231.216 82.7583 231.766 82.275 232.2 81.625L233.525 82.525C233.008 83.375 232.3 84.025 231.4 84.475C230.5 84.9083 229.491 85.125 228.375 85.125ZM248.242 78.975H237.242C237.342 80.3417 237.867 81.45 238.817 82.3C239.767 83.1333 240.967 83.55 242.417 83.55C243.233 83.55 243.983 83.4083 244.667 83.125C245.35 82.825 245.942 82.3917 246.442 81.825L247.442 82.975C246.858 83.675 246.125 84.2083 245.242 84.575C244.375 84.9417 243.417 85.125 242.367 85.125C241.017 85.125 239.817 84.8417 238.767 84.275C237.733 83.6917 236.925 82.8917 236.342 81.875C235.758 80.8583 235.467 79.7083 235.467 78.425C235.467 77.1417 235.742 75.9917 236.292 74.975C236.858 73.9583 237.625 73.1667 238.592 72.6C239.575 72.0333 240.675 71.75 241.892 71.75C243.108 71.75 244.2 72.0333 245.167 72.6C246.133 73.1667 246.892 73.9583 247.442 74.975C247.992 75.975 248.267 77.125 248.267 78.425L248.242 78.975ZM241.892 73.275C240.625 73.275 239.558 73.6833 238.692 74.5C237.842 75.3 237.358 76.35 237.242 77.65H246.567C246.45 76.35 245.958 75.3 245.092 74.5C244.242 73.6833 243.175 73.275 241.892 73.275ZM260.86 73.425H255.885V85H254.11V73.425H249.135V71.85H260.86V73.425ZM269.076 76.5C270.726 76.5167 271.976 76.8833 272.826 77.6C273.693 78.3167 274.126 79.35 274.126 80.7C274.126 82.1 273.66 83.175 272.726 83.925C271.81 84.675 270.476 85.0417 268.726 85.025L263.426 85V71.85H265.201V76.45L269.076 76.5ZM268.626 83.675C269.843 83.6917 270.76 83.45 271.376 82.95C272.01 82.4333 272.326 81.6833 272.326 80.7C272.326 79.7333 272.018 79.0167 271.401 78.55C270.785 78.0833 269.86 77.8417 268.626 77.825L265.201 77.775V83.625L268.626 83.675Z" fill="#222222"/>
<g filter="url(#filter0_d)">
<path d="M97.1228 45.585H79.5728L75.7928 54H72.3278L86.7278 22.5H90.0128L104.413 54H100.903L97.1228 45.585ZM95.9078 42.885L88.3478 25.965L80.7878 42.885H95.9078ZM131.369 38.25H134.564V50.265C133.094 51.555 131.354 52.545 129.344 53.235C127.334 53.925 125.219 54.27 122.999 54.27C119.849 54.27 117.014 53.58 114.494 52.2C111.974 50.82 109.994 48.915 108.554 46.485C107.114 44.025 106.394 41.28 106.394 38.25C106.394 35.22 107.114 32.49 108.554 30.06C109.994 27.6 111.974 25.68 114.494 24.3C117.014 22.92 119.864 22.23 123.044 22.23C125.444 22.23 127.649 22.62 129.659 23.4C131.669 24.15 133.364 25.275 134.744 26.775L132.674 28.89C130.184 26.43 127.019 25.2 123.179 25.2C120.629 25.2 118.319 25.77 116.249 26.91C114.209 28.02 112.604 29.58 111.434 31.59C110.264 33.57 109.679 35.79 109.679 38.25C109.679 40.71 110.264 42.93 111.434 44.91C112.604 46.89 114.209 48.45 116.249 49.59C118.289 50.73 120.584 51.3 123.134 51.3C126.374 51.3 129.119 50.49 131.369 48.87V38.25ZM165.499 54L158.299 43.875C157.489 43.965 156.649 44.01 155.779 44.01H147.319V54H143.989V22.5H155.779C159.799 22.5 162.949 23.46 165.229 25.38C167.509 27.3 168.649 29.94 168.649 33.3C168.649 35.76 168.019 37.845 166.759 39.555C165.529 41.235 163.759 42.45 161.449 43.2L169.144 54H165.499ZM155.689 41.175C158.809 41.175 161.194 40.485 162.844 39.105C164.494 37.725 165.319 35.79 165.319 33.3C165.319 30.75 164.494 28.8 162.844 27.45C161.194 26.07 158.809 25.38 155.689 25.38H147.319V41.175H155.689ZM198.783 51.12V54H176.508V22.5H198.108V25.38H179.838V36.585H196.128V39.42H179.838V51.12H198.783ZM226.456 37.755C228.526 38.205 230.116 39.105 231.226 40.455C232.366 41.775 232.936 43.485 232.936 45.585C232.936 48.285 231.931 50.37 229.921 51.84C227.941 53.28 225.001 54 221.101 54H206.611V22.5H220.201C223.711 22.5 226.426 23.205 228.346 24.615C230.296 26.025 231.271 28.02 231.271 30.6C231.271 32.34 230.836 33.825 229.966 35.055C229.126 36.255 227.956 37.155 226.456 37.755ZM209.941 25.245V36.675H219.976C222.526 36.675 224.491 36.195 225.871 35.235C227.251 34.245 227.941 32.82 227.941 30.96C227.941 29.1 227.251 27.69 225.871 26.73C224.491 25.74 222.526 25.245 219.976 25.245H209.941ZM221.056 51.255C223.876 51.255 226.006 50.775 227.446 49.815C228.886 48.855 229.606 47.355 229.606 45.315C229.606 41.385 226.756 39.42 221.056 39.42H209.941V51.255H221.056ZM254.307 54.27C251.187 54.27 248.352 53.58 245.802 52.2C243.282 50.79 241.302 48.87 239.862 46.44C238.452 44.01 237.747 41.28 237.747 38.25C237.747 35.22 238.452 32.49 239.862 30.06C241.302 27.63 243.282 25.725 245.802 24.345C248.352 22.935 251.187 22.23 254.307 22.23C257.427 22.23 260.232 22.92 262.722 24.3C265.242 25.68 267.222 27.6 268.662 30.06C270.102 32.49 270.822 35.22 270.822 38.25C270.822 41.28 270.102 44.025 268.662 46.485C267.222 48.915 265.242 50.82 262.722 52.2C260.232 53.58 257.427 54.27 254.307 54.27ZM254.307 51.3C256.797 51.3 259.047 50.745 261.057 49.635C263.067 48.495 264.642 46.935 265.782 44.955C266.922 42.945 267.492 40.71 267.492 38.25C267.492 35.79 266.922 33.57 265.782 31.59C264.642 29.58 263.067 28.02 261.057 26.91C259.047 25.77 256.797 25.2 254.307 25.2C251.817 25.2 249.552 25.77 247.512 26.91C245.502 28.02 243.912 29.58 242.742 31.59C241.602 33.57 241.032 35.79 241.032 38.25C241.032 40.71 241.602 42.945 242.742 44.955C243.912 46.935 245.502 48.495 247.512 49.635C249.552 50.745 251.817 51.3 254.307 51.3ZM304.611 22.5V54H301.866L281.616 28.44V54H278.286V22.5H281.031L301.326 48.06V22.5H304.611Z" fill="white"/>
</g>
<g filter="url(#filter1_d)">
<path d="M68.6992 51.12V54H42.8692V51.705L63.7492 25.38H43.1842V22.5H68.1592V24.795L47.3242 51.12H68.6992Z" fill="white"/>
</g>
<defs>
<filter id="filter0_d" x="65.3278" y="15.23" width="246.283" height="46.04" filterUnits="userSpaceOnUse" color-interpolation-filters="sRGB">
<feFlood flood-opacity="0" result="BackgroundImageFix"/>
<feColorMatrix in="SourceAlpha" type="matrix" values="0 0 0 0 0 0 0 0 0 0 0 0 0 0 0 0 0 0 127 0"/>
<feOffset/>
<feGaussianBlur stdDeviation="3.5"/>
<feColorMatrix type="matrix" values="0 0 0 0 0.203922 0 0 0 0 0.345098 0 0 0 0 0.847059 0 0 0 1 0"/>
<feBlend mode="normal" in2="BackgroundImageFix" result="effect1_dropShadow"/>
<feBlend mode="normal" in="SourceGraphic" in2="effect1_dropShadow" result="shape"/>
</filter>
<filter id="filter1_d" x="35.8692" y="15.5" width="39.83" height="45.5" filterUnits="userSpaceOnUse" color-interpolation-filters="sRGB">
<feFlood flood-opacity="0" result="BackgroundImageFix"/>
<feColorMatrix in="SourceAlpha" type="matrix" values="0 0 0 0 0 0 0 0 0 0 0 0 0 0 0 0 0 0 127 0"/>
<feOffset/>
<feGaussianBlur stdDeviation="3.5"/>
<feColorMatrix type="matrix" values="0 0 0 0 0.839216 0 0 0 0 0.188235 0 0 0 0 0.192157 0 0 0 1 0"/>
<feBlend mode="normal" in2="BackgroundImageFix" result="effect1_dropShadow"/>
<feBlend mode="normal" in="SourceGraphic" in2="effect1_dropShadow" result="shape"/>
</filter>
</defs>
</svg>
